<svg xmlns="http://www.w3.org/2000/svg" xmlns:xlink="http://www.w3.org/1999/xlink" width="230" height="83" viewBox="0 0 230 83">
  <defs>
    <path id="cityflow-a" d="M36.0131698,7.41907029 L33.5935844,7.41816509 L32.7852456,12.2500942 L35.2043783,12.2500942 L33.4220501,22.9006147 C32.8033495,26.5892829 34.4698129,29.0631799 38.248548,29.0640851 C40.2413341,29.0640851 41.3121794,28.7617501 41.9141338,28.4566995 L42.7134207,23.683608 C42.0449344,23.9814171 41.3411456,24.1592878 40.6844269,24.1583826 C39.366916,24.1574775 38.6862096,23.6627886 38.9215602,22.2552109 L40.596623,12.2509994 L44.6736197,12.251452 L47.3625005,28.3046268 L42.8845025,37.5475695 L48.6171003,37.5493799 L63.2568136,7.42631184 L57.4830295,7.42450146 L51.391522,21.2291727 L49.7540248,7.42359626 L43.9390543,7.42042808 L41.405867,7.41997548 L42.0553442,3.53985855 L36.6630996,3.53804816 L36.0131698,7.41907029 Z"/>
    <polygon id="cityflow-b" points="4.682 7.747 4.682 .075 .179 .075 .179 7.747 4.682 7.747"/>
    <polygon id="cityflow-d" points="17.556 .084 0 .084 0 3.661 0 7.238 17.556 7.238 17.556 .084"/>
  </defs>
  <g fill="none" fill-rule="evenodd">
    <g transform="translate(91 12)">
      <path fill="#FFF" d="M64.7317073 32.802168C64.5672982 32.536584 64.379179 32.3500457 64.1673442 32.2425474 63.9555093 32.1350491 63.6693785 32.0813008 63.3089431 32.0813008 63.0433591 32.0813008 62.8046533 32.1382108 62.5928184 32.2520325 62.3809836 32.3658542 62.2007686 32.5286801 62.052168 32.7405149 61.9035675 32.9523497 61.7897475 33.2068639 61.7107046 33.504065 61.6316618 33.8012662 61.5921409 34.1332412 61.5921409 34.5 61.5921409 34.8414651 61.6348234 35.1592126 61.7201897 35.453252 61.805556 35.7472914 61.9272801 36.0018056 62.0853659 36.2168022 62.2434516 36.4317987 62.4284091 36.6009479 62.6402439 36.7242547 62.8520787 36.8475616 63.0876229 36.9092141 63.3468835 36.9092141 63.6757017 36.9092141 63.9428626 36.8491424 64.148374 36.7289973 64.3538854 36.6088522 64.5325196 36.4634155 64.6842818 36.2926829L65.5189702 36.8523035C65.0194194 37.6174383 64.282751 38 63.3089431 38 62.9042437 38 62.5343287 37.9114733 62.199187 37.7344173 61.8640453 37.5573614 61.5747528 37.313913 61.3313008 37.004065 61.0878488 36.6942171 60.8981488 36.3258829 60.7621951 35.8990515 60.6262414 35.4722201 60.5582656 35.0058743 60.5582656 34.5 60.5582656 34.0067726 60.6214989 33.5467501 60.7479675 33.1199187 60.874436 32.6930873 61.0562319 32.3231723 61.2933604 32.0101626 61.530489 31.6971529 61.8182007 31.4505429 62.1565041 31.2703252 62.4948075 31.0901075 62.87895 31 63.3089431 31 64.3523087 31 65.1111087 31.4110167 65.5853659 32.2330623L64.7317073 32.802168zM69.2276423 38C68.8229429 38 68.4530279 37.9193775 68.1178862 37.7581301 67.7827445 37.5968827 67.4950328 37.366081 67.2547425 37.0657182 67.0144523 36.7653553 66.8279139 36.398602 66.695122 35.9654472 66.56233 35.5322923 66.495935 35.0438148 66.495935 34.5 66.495935 33.9498617 66.56233 33.4582226 66.695122 33.0250678 66.8279139 32.5919129 67.0144523 32.2251596 67.2547425 31.9247967 67.4950328 31.6244339 67.7827445 31.3952131 68.1178862 31.2371274 68.4530279 31.0790417 68.8229429 31 69.2276423 31 69.6323417 31 70.0022567 31.0790417 70.3373984 31.2371274 70.6725401 31.3952131 70.9602517 31.6244339 71.200542 31.9247967 71.4408323 32.2251596 71.6273706 32.5919129 71.7601626 33.0250678 71.8929546 33.4582226 71.9593496 33.9498617 71.9593496 34.5 71.9593496 35.0438148 71.8929546 35.5322923 71.7601626 35.9654472 71.6273706 36.398602 71.4408323 36.7653553 71.200542 37.0657182 70.9602517 37.366081 70.6725401 37.5968827 70.3373984 37.7581301 70.0022567 37.9193775 69.6323417 38 69.2276423 38zM69.2276423 36.9376694C69.474256 36.9376694 69.701896 36.8886635 69.9105691 36.7906504 70.1192422 36.6926373 70.3026189 36.5424581 70.4607046 36.3401084 70.6187903 36.1377587 70.7420953 35.8832445 70.8306233 35.5765583 70.9191513 35.269872 70.9634146 34.9110228 70.9634146 34.5 70.9634146 33.6716309 70.808493 33.0566867 70.498645 32.6551491 70.188797 32.2536114 69.7651337 32.0528455 69.2276423 32.0528455 68.6901509 32.0528455 68.2664875 32.2536114 67.9566396 32.6551491 67.6467916 33.0566867 67.4918699 33.6716309 67.4918699 34.5 67.4918699 34.9110228 67.5361333 35.269872 67.6246612 35.5765583 67.7131892 35.8832445 67.8364942 36.1377587 67.9945799 36.3401084 68.1526657 36.5424581 68.3360423 36.6926373 68.5447154 36.7906504 68.7533886 36.8886635 68.9810286 36.9376694 69.2276423 36.9376694zM77.6504065 33.001355L75.9146341 37.9051491 75.8577236 37.9051491 74.0176152 32.9918699 74.0176152 37.9051491 73.00271 37.9051491 73.00271 31.0948509 74.4065041 31.0948509 75.8861789 35.2493225 77.3373984 31.0948509 78.6558266 31.0948509 78.6558266 37.9051491 77.6504065 37.9051491 77.6504065 33.001355zM84.4417344 33.001355L82.7059621 37.9051491 82.6490515 37.9051491 80.8089431 32.9918699 80.8089431 37.9051491 79.7940379 37.9051491 79.7940379 31.0948509 81.197832 31.0948509 82.6775068 35.2493225 84.1287263 31.0948509 85.4471545 31.0948509 85.4471545 37.9051491 84.4417344 37.9051491 84.4417344 33.001355zM88.9092141 38C88.5361318 38 88.2041568 37.9399283 87.9132791 37.8197832 87.6224014 37.6996381 87.3757914 37.5289081 87.1734417 37.3075881 86.971092 37.0862681 86.8161704 36.8191073 86.7086721 36.5060976 86.6011738 36.1930879 86.5474255 35.8437237 86.5474255 35.4579946L86.5474255 31.0948509 87.5528455 31.0948509 87.5528455 35.4579946C87.5528455 36.0271031 87.6745697 36.4254731 87.9180217 36.6531165 88.1614737 36.8807599 88.4918678 36.9945799 88.9092141 36.9945799 89.3075901 36.9945799 89.6190142 36.8807599 89.8434959 36.6531165 90.0679776 36.4254731 90.1802168 36.0271031 90.1802168 35.4579946L90.1802168 31.0948509 91.1856369 31.0948509 91.1856369 35.4579946C91.1856369 35.8374003 91.136631 36.1836028 91.0386179 36.4966125 90.9406047 36.8096222 90.7951681 37.0783638 90.6023035 37.3028455 90.409439 37.5273272 90.1707331 37.6996381 89.8861789 37.8197832 89.6016246 37.9399283 89.2759729 38 88.9092141 38zM94.8279133 37.9051491L93.7181572 37.9051491 93.7181572 32.1097561 91.9254743 32.1097561 91.9254743 31.0948509 96.601626 31.0948509 96.601626 32.1097561 94.8279133 32.1097561 94.8279133 37.9051491zM97.3794038 31.0948509L101.012195 31.0948509 101.012195 32.1097561 98.3943089 32.1097561 98.3943089 33.9119241 100.03523 33.9119241 100.03523 34.9173442 98.3943089 34.9173442 98.3943089 36.899729 101.012195 36.899729 101.012195 37.9051491 97.3794038 37.9051491 97.3794038 31.0948509zM.253629911 14.9934046C-1.09556274 23.0573313 3.03484052 29.070992 10.3384037 29.070992L10.3384037 29.070992C14.6267634 29.070992 18.3516395 27.3606267 21.4659617 23.9756512L21.4659617 23.9756512 17.3876071 21.198514C15.7582567 22.5676209 13.3219253 23.6696954 11.4119646 23.6696954L11.4119646 23.6696954C7.37751193 23.6678851 5.10321033 20.017235 5.94323098 14.9938572L5.94323098 14.9938572C6.84118409 9.63238916 9.8944057 6.36192083 14.1393161 6.36192083L14.1393161 6.36192083C16.3905352 6.36418382 17.9968032 7.16347071 19.3224607 9.14177365L19.3224607 9.14177365 24.706106 6.40265459C22.9749212 2.78911749 19.7519756 1.00135802 15.0381744 1.00000023L15.0381744 1.00000023C7.39425803.998642437 1.58471867 7.04443761.253629911 14.9934046"/>
      <polygon fill="#FFF" points="22.765 28.68 22.765 28.68 28.242 28.68 31.802 7.418 31.802 7.418 26.324 7.416"/>
      <polygon fill="#FFF" points="61.481 28.686 61.481 28.687 66.958 28.689 68.9 17.087 76.118 17.09 76.928 12.259 69.709 12.258 70.721 6.209 82.056 6.21 82.865 1.381 82.865 1.381 66.054 1.378"/>
      <path fill="#FFF" d="M88.351978,18.8141133 C87.3865879,24.5792982 90.4981945,29.0740423 96.2724313,29.0749475 L96.2724313,29.0749475 C102.047573,29.0772105 106.662708,24.5833715 107.628098,18.8172815 L107.628098,18.8172815 C108.588963,13.0860415 105.477356,8.59265517 99.7035717,8.59039218 L99.7035717,8.59039218 C93.9279771,8.5881292 89.3128421,13.0819681 88.351978,18.8141133 M93.7442226,18.8150185 C94.2932232,15.5246359 96.1968475,13.2964993 98.9151471,13.2974044 L98.9151471,13.2974044 C101.632089,13.2974044 102.786665,15.5259937 102.236306,18.8163763 L102.236306,18.8163763 C101.68459,22.1067589 99.777345,24.3711034 97.0613084,24.3697456 L97.0613084,24.3697456 C94.3430089,24.369293 93.192959,22.1058537 93.7442226,18.8150185"/>
      <polygon fill="#FFF" points="107.871 7.434 110.553 28.697 116.369 28.699 121.651 17.441 123.035 28.7 128.809 28.702 138.738 7.442 138.738 7.44 132.921 7.44 127.339 20.486 126.127 7.438 120.481 7.437 114.9 20.483 113.687 7.436 107.886 7.434"/>
      <polygon fill="#FFF" points="84.41 1.383 79.836 28.691 85.273 28.691 89.845 1.384 89.845 1.383"/>
      <path fill="#FFF" d="M30.315422,0.00190519467 C30.3118012,0.00190519467 30.308633,0.001 30.3045596,0.001 L30.3045596,0.001 C30.2393856,0.001 30.1733064,0.006431168 30.1081324,0.0114097387 L30.1081324,0.0114097387 C29.3785455,0.052596096 28.7381203,0.296998656 28.2189911,0.700262879 L28.2189911,0.700262879 C27.4350925,1.26465175 26.853505,2.11643993 26.6923803,3.07096771 L26.6923803,3.07096771 C26.5896407,3.68650008 26.679255,4.2608461 26.9146056,4.74105187 L26.9146056,4.74105187 C27.2250874,5.65891926 28.0338788,6.23869644 29.2812371,6.23869644 L29.2812371,6.23869644 C30.0664934,6.23869644 30.8734745,5.89743805 31.5134471,5.32444983 L31.5134471,5.32444983 C32.2204041,4.76368173 32.7399859,3.96303705 32.8897956,3.07096771 L32.8897956,3.07096771 C33.156828,1.48189847 32.1547775,0.173439584 30.6173044,0.0163883093 L30.6173044,0.0163883093 C30.5227115,0.006431168 30.4263083,0.001 30.3271895,0.001 L30.3271895,0.001 C30.3231161,0.001 30.3199479,0.00190519467 30.315422,0.00190519467"/>
      <use fill="#FFF" xlink:href="#cityflow-a"/>
    </g>
    <path fill="#FFF" d="M33.985367,49.014633 L11.2270523,40.1853258 L61.0426566,21.956687 L42.8146742,71.773604 L33.985367,49.014633 Z M70.8456325,12.1543675 C54.6381683,-4.05145584 28.3619138,-4.05145584 12.1551059,12.1543675 C-4.05170197,28.3618317 -4.05170197,54.6374299 12.1551059,70.8442378 C28.3619138,87.051702 54.6381683,87.051702 70.8456325,70.8442378 C87.0514558,54.6374299 87.0514558,28.3618317 70.8456325,12.1543675 Z"/>
    <g transform="translate(91 62)">
      <path fill="#FFF" d="M48.6471227 11.8297175C49.6221813 11.8297175 50.2372183 11.6456883 50.7128503 11.2199607 51.2352955 10.7598878 51.5487627 10.0237711 51.5487627 9.28739819 51.5487627 8.55153785 51.2352955 7.83848892 50.7128503 7.37841602 50.213941 6.92987697 49.6221813 6.75738167 48.6471227 6.75738167L48.2410638 6.75738167 48.2410638 11.8297175 48.6471227 11.8297175zM46.73218 5.45764367L48.9484339 5.45764367C50.0864334 5.45764367 50.9916602 5.74496497 51.7228249 6.34293159 52.5933944 7.04495928 53.1039424 8.13760039 53.1039424 9.28739819 53.1039424 10.4264311 52.5814972 11.5190722 51.6995476 12.243655 50.9567443 12.8649456 50.109452 13.1294555 48.9373126 13.1294555L46.73218 13.1294555 46.73218 5.45764367zM61.4150109 7.03334852C61.0552479 6.63068861 60.8692885 6.48126104 60.5097841 6.28569801 59.9759589 5.98658655 59.3606633 5.82562511 58.8027849 5.82562511 56.9230168 5.82562511 55.3215412 7.44754229 55.3215412 9.33396936 55.3215412 10.3458734 55.7513946 11.2429515 56.5285965 11.8985875 57.2018266 12.4622088 58.0258417 12.7841317 58.8027849 12.7841317 59.4183392 12.7841317 60.1619184 12.5660136 60.7415222 12.1976989 60.9851575 12.0598052 61.1248211 11.933189 61.4150109 11.6340776L61.4150109 12.3009911C60.5677186 12.9681608 59.7786195 13.2557385 58.8387354 13.2557385 56.6449828 13.2557385 54.799096 11.4500484 54.799096 9.31064533 54.799096 7.15996469 56.6333442 5.35427465 58.8149409 5.35427465 59.8018967 5.35427465 60.6026345 5.66440736 61.4150109 6.34311101L61.4150109 7.03334852zM63.6092291 9.25325796C63.6092291 10.2882298 63.992528 11.1740303 64.7353312 11.8524776 65.3850255 12.4391667 66.2442151 12.7841573 67.0682301 12.7841573 69.0061914 12.7841573 70.5846484 11.2199094 70.5846484 9.2991371 70.5846484 7.40143248 69.0061914 5.82539443 67.0915074 5.82539443 65.2112219 5.82539443 63.6092291 7.40143248 63.6092291 9.25325796M71.1070936 9.2991371C71.1070936 11.4731418 69.2847427 13.2557641 67.0682301 13.2557641 64.8858575 13.2557641 63.0870425 11.4385402 63.0870425 9.2417241 63.0870425 7.15999032 64.9440507 5.35430028 67.0915074 5.35430028 69.2847427 5.35430028 71.1070936 7.14845646 71.1070936 9.2991371"/>
      <polygon fill="#FFF" points="73.36 5.377 79.859 12.117 79.859 5.457 80.358 5.457 80.358 13.325 73.859 6.585 73.859 13.13 73.36 13.13"/>
      <polygon fill="#FFF" points="83.029 5.377 89.528 12.117 89.528 5.457 90.027 5.457 90.027 13.325 83.528 6.585 83.528 13.13 83.029 13.13"/>
      <polygon fill="#FFF" points="93.197 5.918 93.197 8.701 96.33 8.701 96.33 9.161 93.197 9.161 93.197 12.669 96.4 12.669 96.4 13.129 92.697 13.129 92.697 5.458 96.4 5.458 96.4 5.918"/>
      <path fill="#FFF" d="M104.803749,7.03334852 C104.443468,6.63068861 104.258285,6.48126104 103.898004,6.28569801 C103.364697,5.98658655 102.749401,5.82562511 102.19204,5.82562511 C100.311496,5.82562511 98.7100202,7.44754229 98.7100202,9.33396936 C98.7100202,10.3458734 99.139615,11.2429515 99.9168169,11.8985875 C100.590306,12.4622088 101.414321,12.7841317 102.19204,12.7841317 C102.807335,12.7841317 103.549363,12.5660136 104.13026,12.1976989 C104.374412,12.0598052 104.5133,11.933189 104.803749,11.6340776 L104.803749,12.3009911 C103.956198,12.9681608 103.166581,13.2557385 102.226956,13.2557385 C100.033203,13.2557385 98.1873164,11.4500484 98.1873164,9.31064533 C98.1873164,7.15996469 100.021565,5.35427465 102.203161,5.35427465 C103.190376,5.35427465 103.990855,5.66440736 104.803749,6.34311101 L104.803749,7.03334852 Z"/>
      <g transform="translate(106.04 5.382)">
        <mask id="cityflow-c" fill="#fff">
          <use xlink:href="#cityflow-b"/>
        </mask>
        <polygon fill="#FFF" points="2.663 7.747 2.164 7.747 2.164 .535 .179 .535 .179 .075 4.682 .075 4.682 .535 2.663 .535" mask="url(#cityflow-c)"/>
      </g>
      <polygon fill="#FFF" points="1.059 13.121 0 3.131 8.773 7.238 3.556 11.169 8.765 14.298 8.761 18.454"/>
      <mask id="cityflow-e" fill="#fff">
        <use xlink:href="#cityflow-d"/>
      </mask>
      <polygon fill="#FFF" points="0 3.131 8.764 .084 17.556 3.082 14.389 4.58 8.842 2.456 8.773 7.238" mask="url(#cityflow-e)"/>
      <polygon fill="#FFF" points="8.761 18.454 16.509 13.021 16.846 9.439 12.42 12.065 12.45 10.016 17.091 7.421 17.556 3.082 8.773 7.238"/>
      <polygon fill="#FFF" points="23.115 5.155 24.166 5.155 26.318 10.381 28.552 5.155 29.616 5.155 30.928 13.294 29.38 13.294 28.67 8.367 26.507 13.402 26.082 13.402 23.99 8.367 23.197 13.294 21.649 13.294"/>
      <polygon fill="#FFF" points="32.99 13.402 35.052 13.402 35.052 5.155 32.99 5.155"/>
      <polygon fill="#FFF" points="37.113 5.155 38.151 5.155 42.831 10.661 42.831 5.333 44.33 5.333 44.33 13.402 43.292 13.402 38.612 7.896 38.612 13.248 37.113 13.248"/>
    </g>
  </g>
</svg>
