<svg height="182" viewBox="0 0 638 182" width="638" xmlns="http://www.w3.org/2000/svg" xmlns:xlink="http://www.w3.org/1999/xlink"><linearGradient id="a" x1="4.686009%" x2="93.023785%" y1="94.589599%" y2="4.923763%"><stop offset="0" stop-color="#091414"/><stop offset="1" stop-color="#1b3e4a"/></linearGradient><g fill="none" fill-rule="evenodd"><rect fill="url(#a)" height="182" rx="32" width="182"/><g transform="translate(30 23)"><rect fill="#06a9bb" height="34" rx="9" width="34" y="8"/><rect fill="#4aaea5" height="34" rx="9" width="34" y="52"/><rect fill="#99b285" height="34" rx="9" width="34" y="95"/><rect fill="#b94f4d" height="34" rx="9" width="34" x="88" y="8"/><rect fill="#43768d" height="34" rx="9" transform="matrix(.70710678 -.70710678 .70710678 .70710678 .188817 50.455844)" width="34" x="44" y="8"/><rect fill="#427388" height="34" rx="9" transform="matrix(.70710678 -.70710678 .70710678 .70710678 -61.329473 75.937554)" width="34" x="44" y="95"/><rect fill="#b98932" height="34" rx="9" width="34" x="88" y="52"/><rect fill="#a49f80" height="34" rx="9" width="34" x="44" y="52"/><rect fill="#b8ad4d" height="34" rx="9" width="34" x="88" y="95"/></g><path d="m320.558594 156h-19.464844v-39.1875h-41.894531v39.1875h-19.464844v-93.0058594h19.464844v37.7695314h41.894531v-37.7695314h19.464844zm45.568359 1.482422c-20.882812 0-34.224609-13.40625-34.224609-36.09375 0-22.3652345 13.535156-35.9648439 34.224609-35.9648439s34.224609 13.5351563 34.224609 35.9648439c0 22.751953-13.341796 36.09375-34.224609 36.09375zm0-14.373047c9.216797 0 15.082031-7.798828 15.082031-21.65625 0-13.728516-5.929687-21.65625-15.082031-21.65625s-15.146484 7.927734-15.146484 21.65625c0 13.857422 5.865234 21.65625 15.146484 21.65625zm43.892578 12.890625v-69.09375h18.175781v12.5039062h.386719c2.900391-8.3144531 10.3125-13.7929687 19.722657-13.7929687 9.990234 0 16.951171 5.15625 19.271484 14.1796875h.386719c3.09375-8.7011719 11.34375-14.1796875 21.46289-14.1796875 13.535157 0 22.623047 9.28125 22.623047 23.2031245v47.179688h-18.820312v-42.474609c0-7.992188-3.996094-12.375-11.279297-12.375-7.154297 0-11.859375 5.220703-11.859375 12.890625v41.958984h-18.111328v-43.054688c0-7.412109-4.189454-11.794921-11.150391-11.794921-7.154297 0-11.988281 5.414062-11.988281 13.148437v41.701172zm144.955078-56.6542969c-8.25 0-14.179687 6.2519529-14.824218 14.8886719h29.326171c-.386718-8.830078-6.123046-14.8886719-14.501953-14.8886719zm14.759766 35.5136719h17.273437c-2.0625 13.535156-14.4375 22.623047-31.517578 22.623047-21.269531 0-34.03125-13.59961-34.03125-35.707031 0-22.0429691 12.890625-36.3515629 33.322266-36.3515629 20.109375 0 32.806641 13.5996094 32.806641 34.6113279v5.736328h-47.63086v1.160157c0 9.861328 6.251953 16.628906 15.855469 16.628906 6.896484 0 12.181641-3.416016 13.921875-8.701172zm27.521484 21.140625v-69.09375h18.175782v12.4394531h.386718c2.449219-8.765625 8.314453-13.5351562 16.435547-13.5351562 2.191406 0 4.060547.3222656 5.34961.7089843v16.5644528c-1.546875-.644531-4.125-1.095703-6.832032-1.095703-9.28125 0-14.695312 5.671875-14.695312 15.404297v38.607422z" fill="#333" fill-rule="nonzero"/></g></svg>