<svg xmlns="http://www.w3.org/2000/svg" xmlns:xlink="http://www.w3.org/1999/xlink" width="63px" height="96px" viewBox="0 0 63 96"> <!-- Generator: Sketch 43.1 (39012) - http://www.bohemiancoding.com/sketch --> <title>Group</title> <desc>Created with Sketch.</desc> <defs></defs> <g id="Page-1" stroke="none" stroke-width="1" fill="none" fill-rule="evenodd"> <g id="Vilmate-Service-Details" transform="translate(-929.000000, -842.000000)"> <g id="Group" transform="translate(929.000000, 842.000000)"> <path d="M52.173913,96 L10.4347826,96 C4.68104348,96 0,91.3189565 0,85.5652174 L0,10.4347826 C0,4.68104348 4.68104348,0 10.4347826,0 L52.173913,0 C57.9276522,0 62.6086957,4.68104348 62.6086957,10.4347826 L62.6086957,85.5652174 C62.6086957,91.3189565 57.9276522,96 52.173913,96 L52.173913,96 Z" id="Shape" fill="#B3B3B3"></path> <rect id="Rectangle-path" fill="#444444" x="0" y="12.5217391" width="62.6086957" height="66.7826087"></rect> <path d="M56.3478261,75.1304348 L6.26086957,75.1304348 C5.10886957,75.1304348 4.17391304,74.1954783 4.17391304,73.0434783 L4.17391304,18.7826087 C4.17391304,17.6306087 5.10886957,16.6956522 6.26086957,16.6956522 L56.3478261,16.6956522 C57.4998261,16.6956522 58.4347826,17.6306087 58.4347826,18.7826087 L58.4347826,73.0434783 C58.4347826,74.1954783 57.4998261,75.1304348 56.3478261,75.1304348 L56.3478261,75.1304348 Z" id="Shape" fill="#BADEFC"></path> <ellipse id="Oval" fill="#444444" cx="31.3043478" cy="6.26086957" rx="2.08695652" ry="2.08695652"></ellipse> <ellipse id="Oval" fill="#969696" cx="31.3043478" cy="87.6521739" rx="4.17391304" ry="4.17391304"></ellipse> </g> </g> </g> </svg>