<svg xmlns="http://www.w3.org/2000/svg" xmlns:xlink="http://www.w3.org/1999/xlink" width="96px" height="96px" viewBox="0 0 96 96"> <!-- Generator: Sketch 43.1 (39012) - http://www.bohemiancoding.com/sketch --> <title>rocket-ship</title> <desc>Created with Sketch.</desc> <defs> <linearGradient x1="28.795137%" y1="11.7933573%" x2="83.6056916%" y2="59.4827398%" id="linearGradient-1"> <stop stop-color="#5FA5CD" offset="0%"></stop> <stop stop-color="#2776C5" offset="100%"></stop> </linearGradient> </defs> <g id="Page-1" stroke="none" stroke-width="1" fill="none" fill-rule="evenodd"> <g id="Vilmate-Service-Details" transform="translate(-1302.000000, -842.000000)"> <g id="rocket-ship" transform="translate(1302.000000, 842.000000)"> <g id="Group"> <path d="M28.8249395,66.7702206 C33.2945765,71.2217509 34.6396014,78.5433737 30.1733808,82.9979786 C25.7037438,87.4495089 12.2326548,92.409395 7.76335943,87.9578648 C3.29679715,83.5063345 8.27752313,70.0830747 12.7440854,65.6315445 C17.2130391,61.1796726 24.3583772,62.3156157 28.8249395,66.7702206 L28.8249395,66.7702206 Z" id="Shape" fill="#EFC75E"></path> <path d="M70.0963986,56.8716299 C76.8259644,70.8240854 60.4041566,103.300441 52.8105907,94.1104057 C49.7314164,90.3851957 49.9346904,84.4420783 41.8956299,76.788726 C41.8836726,76.8365552 44.8224342,77.3090391 48.2634021,74.1936512 C56.2037295,68.0766406 70.0963986,56.9225338 70.0963986,56.8716299 L70.0963986,56.8716299 Z" id="Shape" fill="#48AF3F"></path> <path d="M41.8177367,25.6241423 C26.7351459,18.789694 -8.19860498,35.1042278 1.75703915,42.7784199 C5.79313879,45.8907331 12.1967829,45.7202562 20.4930961,53.8368683 C20.4421922,53.8488256 19.9191459,50.895032 23.2613808,47.4540641 C29.8054377,39.5079288 41.7610249,25.6241423 41.8177367,25.6241423 L41.8177367,25.6241423 Z" id="Shape" fill="#48AF3F"></path> <path d="M35.1749466,24.0755018 L34.5231032,24.0427046 C31.2136655,28.0846121 23.1267758,38.0491388 18.1969537,44.3540498 C16.1758292,46.5483843 15.6288683,48.5425196 15.5123701,49.720484 C16.4781779,50.3842847 17.4737082,51.1495516 18.5020356,52.0285836 C18.7531388,50.8386619 19.4138648,49.179331 21.0670463,47.3826619 C27.3603416,39.3285694 38.8492527,25.2476584 38.9032313,25.2503915 C37.7758292,24.7123132 36.5080142,24.3447117 35.1749466,24.0755018 L35.1749466,24.0755018 Z" id="Shape" fill="#288C20"></path> <path d="M70.1893238,57.092669 C68.2221779,58.7489253 55.7555018,68.970363 48.3471032,74.8031317 C45.8985907,77.06921 43.7250961,77.4938648 42.6400569,77.5355445 C43.7042562,78.6058932 44.6253096,79.6431032 45.4083416,80.6447829 C46.383032,80.6598149 48.7297367,80.3516584 51.3784484,77.9031459 C57.5788185,73.0180783 67.2891673,65.0927829 71.4537224,61.6514733 C71.2296085,60.0017082 70.816911,58.4619502 70.1893238,57.092669 L70.1893238,57.092669 Z" id="Shape" fill="#288C20"></path> <path d="M18.247516,62.9404698 C18.8692954,65.7268612 20.7797295,69.0482562 23.754363,72.0170819 C26.7139644,74.9708754 30.0237438,76.8720854 32.8070605,77.5061637 C33.2795445,73.7631886 31.7309039,69.6645694 28.8249395,66.7705623 C25.9340071,63.8881708 21.9279715,62.4293808 18.247516,62.9404698 L18.247516,62.9404698 Z" id="Shape" fill="#D7B354"></path> <path d="M95.1554733,0.5233879 C97.4037865,2.64905338 94.0940071,34.2074306 72.5240712,55.633879 C59.1694804,68.901694 50.3111744,74.0378648 48.1916584,75.8765552 C42.3291673,78.5344911 38.4396299,79.9632171 26.8219217,68.4175943 C15.2312028,56.901694 17.4614093,53.7087544 20.0325694,48.1926833 C21.9399288,46.0519858 27.2226619,37.1581495 40.5803274,23.8872598 C62.1410391,2.46354448 92.8026192,-1.56333096 95.1554733,0.5233879 L95.1554733,0.5233879 Z" id="Shape" fill="url(#linearGradient-1)"></path> <path d="M68.1921139,27.4389181 C72.8411103,32.0967972 72.8411103,39.6483416 68.1921139,44.3092954 C63.5403843,48.9671744 56.0035302,48.9671744 51.3514591,44.3092954 C46.7024626,39.6483416 46.7024626,32.0967972 51.3514591,27.4389181 C56.0035302,22.7779644 63.5403843,22.7779644 68.1921139,27.4389181 L68.1921139,27.4389181 Z" id="Shape" fill="#0E457C"></path> <path d="M64.0217509,31.6659929 C66.3657224,33.9949324 66.3657224,37.7707046 64.0217509,40.0996441 C61.6808541,42.4285836 57.8780925,42.4285836 55.5313879,40.0996441 C53.1904911,37.7707046 53.1904911,33.9949324 55.5313879,31.6659929 C57.8808256,29.3370534 61.6808541,29.3370534 64.0217509,31.6659929 L64.0217509,31.6659929 Z" id="Shape" fill="#CCD0D2"></path> </g> </g> </g> </g> </svg>