<svg xmlns="http://www.w3.org/2000/svg" xmlns:xlink="http://www.w3.org/1999/xlink" width="114px" height="96px" viewBox="0 0 114 96"> <!-- Generator: Sketch 43.1 (39012) - http://www.bohemiancoding.com/sketch --> <title>computer</title> <desc>Created with Sketch.</desc> <defs></defs> <g id="Page-1" stroke="none" stroke-width="1" fill="none" fill-rule="evenodd"> <g id="Vilmate-Service-Details" transform="translate(-513.000000, -842.000000)"> <g id="computer" transform="translate(513.000000, 842.000000)"> <polygon id="Shape" fill="#CEE2F2" points="71.8775172 93.6318621 42.3153103 93.6318621 46.0737931 75.3533793 68.1235862 75.3533793"></polygon> <polygon id="Shape" fill="#A6C8E6" points="71.8775172 93.6318621 68.1235862 75.3533793 46.0737931 75.3533793 64.346069 93.6318621"></polygon> <rect id="Rectangle-path" fill="#B4C6D4" x="34.4023448" y="93.6351724" width="45.3935172" height="2.20882759"></rect> <path d="M3.13903448,0.157241379 C1.61793103,0.157241379 0.37862069,1.40317241 0.37862069,2.91972414 L0.37862069,72.5937931 C0.37862069,74.1148966 1.61793103,75.3521379 3.13903448,75.3521379 L111.071172,75.3521379 C112.584828,75.3521379 113.829517,74.1136552 113.829517,72.5937931 L113.829517,2.92013793 C113.829517,1.40317241 112.584828,0.157655172 111.071172,0.157655172 L3.13903448,0.157655172 L3.13903448,0.157241379 Z" id="Shape" fill="#34495E"></path> <rect id="Rectangle-path" fill="#FFFFFF" x="6.11131034" y="5.89241379" width="101.979724" height="63.7386207"></rect> <g id="Group" transform="translate(11.586207, 11.586207)" fill="#0684BA"> <rect id="Rectangle-path" x="0.189517241" y="0.18662069" width="4.464" height="1.49668966"></rect> <rect id="Rectangle-path" x="0.189517241" y="7.31462069" width="4.464" height="1.50124138"></rect> </g> <g id="Group" transform="translate(17.379310, 11.586207)" fill="#34495E"> <rect id="Rectangle-path" x="0.0107586207" y="0.18662069" width="5.08675862" height="1.49668966"></rect> <rect id="Rectangle-path" x="0.0107586207" y="7.31462069" width="16.1068966" height="1.50124138"></rect> </g> <g id="Group" transform="translate(16.137931, 11.586207)" fill="#0684BA"> <rect id="Rectangle-path" x="6.92358621" y="0.18662069" width="4.0857931" height="1.49668966"></rect> <rect id="Rectangle-path" x="0.0972413793" y="2.89737931" width="7.09406897" height="1.5"></rect> <rect id="Rectangle-path" x="0.0972413793" y="15.4502069" width="7.09406897" height="1.5"></rect> <rect id="Rectangle-path" x="0.0972413793" y="31.6891034" width="7.09406897" height="1.49668966"></rect> <rect id="Rectangle-path" x="0.0972413793" y="18.1617931" width="2.92386207" height="1.5"></rect> <rect id="Rectangle-path" x="8.86841379" y="15.4502069" width="18.5515862" height="1.5"></rect> <rect id="Rectangle-path" x="7.68206897" y="23.5750345" width="6.45434483" height="1.49793103"></rect> <rect id="Rectangle-path" x="7.88027586" y="28.9986207" width="6.45434483" height="1.49586207"></rect> <rect id="Rectangle-path" x="7.88027586" y="50.6507586" width="6.45434483" height="1.49586207"></rect> </g> <g id="Group" transform="translate(28.965517, 34.758621)" fill="#C1D354"> <rect id="Rectangle-path" x="3.00041379" y="0.40262069" width="10.4809655" height="1.49793103"></rect> <rect id="Rectangle-path" x="3.00041379" y="5.8262069" width="4.55089655" height="1.49586207"></rect> <rect id="Rectangle-path" x="0.246206897" y="11.2286897" width="5.34951724" height="1.49875862"></rect> <rect id="Rectangle-path" x="0.246206897" y="22.0655172" width="10.272" height="1.50124138"></rect> <rect id="Rectangle-path" x="3.5937931" y="27.4783448" width="3.78703448" height="1.49586207"></rect> <rect id="Rectangle-path" x="29.642069" y="16.641931" width="5.34951724" height="1.49462069"></rect> </g> <rect id="Rectangle-path" fill="#34495E" x="44.5187586" y="35.1612414" width="5.77531034" height="1.49793103"></rect> <rect id="Rectangle-path" fill="#C1D354" x="51.393931" y="35.1612414" width="2.73310345" height="1.49793103"></rect> <g id="Group" transform="translate(16.137931, 21.517241)" fill="#34495E"> <rect id="Rectangle-path" x="29.5249655" y="5.51917241" width="13.3357241" height="1.5"></rect> <rect id="Rectangle-path" x="45.5735172" y="5.51917241" width="8.16951724" height="1.5"></rect> <rect id="Rectangle-path" x="0.0972413793" y="0.0951724138" width="10.5897931" height="1.50206897"></rect> <rect id="Rectangle-path" x="0.0972413793" y="2.80717241" width="15.0144828" height="1.49462069"></rect> <rect id="Rectangle-path" x="4.10151724" y="8.23075862" width="17.2117241" height="1.5"></rect> <rect id="Rectangle-path" x="4.10151724" y="27.182069" width="17.2117241" height="1.49875862"></rect> <rect id="Rectangle-path" x="9.55696552" y="29.8833103" width="10.3696552" height="1.49462069"></rect> <rect id="Rectangle-path" x="9.55696552" y="38.0184828" width="4.98413793" height="1.5"></rect> <rect id="Rectangle-path" x="20.2137931" y="38.0184828" width="10.466069" height="1.5"></rect> <rect id="Rectangle-path" x="23.3491034" y="40.7197241" width="7.32744828" height="1.49586207"></rect> <rect id="Rectangle-path" x="25.0377931" y="29.8833103" width="16.394069" height="1.49462069"></rect> <rect id="Rectangle-path" x="25.0377931" y="35.3068966" width="16.394069" height="1.50124138"></rect> </g> <g id="Group" transform="translate(19.862069, 32.275862)" fill="#0684BA"> <rect id="Rectangle-path" x="0.37737931" y="0.184137931" width="2.376" height="1.49875862"></rect> <rect id="Rectangle-path" x="0.37737931" y="5.59696552" width="6.08358621" height="1.5"></rect> <rect id="Rectangle-path" x="0.37737931" y="13.7114483" width="6.08358621" height="1.49875862"></rect> <rect id="Rectangle-path" x="0.37737931" y="19.1246897" width="4.08455172" height="1.49462069"></rect> <rect id="Rectangle-path" x="0.37737931" y="24.5482759" width="7.00096552" height="1.50124138"></rect> <rect id="Rectangle-path" x="0.37737931" y="27.2598621" width="3.7742069" height="1.5"></rect> <rect id="Rectangle-path" x="12.1038621" y="27.2598621" width="3.2097931" height="1.5"></rect> <rect id="Rectangle-path" x="17.3474483" y="19.1246897" width="2.74882759" height="1.49462069"></rect> </g> <g id="Group" transform="translate(23.586207, 32.275862)" fill="#34495E"> <rect id="Rectangle-path" x="0.233793103" y="0.184137931" width="3.74896552" height="1.49875862"></rect> <rect id="Rectangle-path" x="0.233793103" y="21.8362759" width="10.7445517" height="1.49668966"></rect> <rect id="Rectangle-path" x="12.5428966" y="21.8362759" width="8.5382069" height="1.49668966"></rect> <rect id="Rectangle-path" x="21.525931" y="21.8362759" width="18.8482759" height="1.49668966"></rect> </g> <rect id="Rectangle-path" fill="#C1D354" x="28.1950345" y="32.46" width="3.0537931" height="1.49875862"></rect> <rect id="Rectangle-path" fill="#34495E" x="31.965931" y="32.46" width="10.4809655" height="1.49875862"></rect> <rect id="Rectangle-path" fill="#C1D354" x="38.4173793" y="29.748" width="3.07531034" height="1.5"></rect> <rect id="Rectangle-path" fill="#FF8E31" x="44.5187586" y="29.748" width="5.77531034" height="1.5"></rect> <rect id="Rectangle-path" fill="#34495E" x="32.856" y="24.3244138" width="15.0157241" height="1.49462069"></rect> <g id="Group" transform="translate(48.827586, 24.000000)" fill="#FF8E31"> <rect id="Rectangle-path" x="14.8754483" y="0.324413793" width="4.67255172" height="1.49462069"></rect> <rect id="Rectangle-path" x="0.0769655172" y="0.324413793" width="9.38027586" height="1.49462069"></rect> </g> <g id="Group" transform="translate(58.758621, 24.000000)" fill="#C1D354"> <rect id="Rectangle-path" x="0.240827586" y="0.324413793" width="3.07075862" height="1.49462069"></rect> <rect id="Rectangle-path" x="10.653931" y="0.324413793" width="3.06662069" height="1.49462069"></rect> </g> <rect id="Rectangle-path" fill="#34495E" x="30.2817931" y="21.6124138" width="16.2645517" height="1.50206897"></rect> <rect id="Rectangle-path" fill="#0684BA" x="27.5697931" y="21.6124138" width="1.96386207" height="1.50206897"></rect> <rect id="Rectangle-path" fill="#34495E" x="24.2594483" y="14.4835862" width="2.88868966" height="1.5"></rect> <rect id="Rectangle-path" fill="#C1D354" x="27.7605517" y="14.4835862" width="2.31889655" height="1.5"></rect> </g> </g> </g> </svg>