<svg xmlns="http://www.w3.org/2000/svg" xmlns:xlink="http://www.w3.org/1999/xlink" width="112px" height="95px" viewBox="0 0 112 95"> <!-- Generator: Sketch 43.1 (39012) - http://www.bohemiancoding.com/sketch --> <title>first</title> <desc>Created with Sketch.</desc> <defs></defs> <g id="Page-1" stroke="none" stroke-width="1" fill="none" fill-rule="evenodd"> <g id="Vilmate-New-About-us-" transform="translate(-1294.000000, -634.000000)" fill-rule="nonzero"> <g id="first" transform="translate(1294.000000, 634.000000)"> <g id="Layer_1"> <g id="Group" transform="translate(0.000000, 42.196030)" fill="#E04F5F"> <polyline id="Shape" points="25.2389053 0.124466501 0 34.3037221 23.8618947 29.5702233 25.9745684 52.7096774 49.1045726 21.0914144"></polyline> <polyline id="Shape" points="86.7026189 0.124466501 111.941524 34.3037221 88.0796295 29.5702233 85.9669558 52.7096774 62.8369516 21.0914144"></polyline> </g> <ellipse id="Oval" fill="#F2B851" cx="55.4916379" cy="33.3589082" rx="33.5613305" ry="33.3230769"></ellipse> <ellipse id="Oval" fill="#D89D3D" cx="55.4916379" cy="33.3589082" rx="21.5304084" ry="21.3780645"></ellipse> <g id="Group" transform="translate(41.498947, 21.923077)" fill="#FFFFFF"> <path d="M9.95220211,22.7849132 L5.63631158,22.7849132 L5.63631158,6.53260546 C4.06312421,8.00734491 2.20321684,9.09736973 0.0641347368,9.79890819 L0.0641347368,5.88764268 C1.18837895,5.51801489 2.41071158,4.82024814 3.73490526,3.79057072 C5.05532632,2.76466501 5.96075789,1.56148883 6.4512,0.19235732 L9.95220211,0.19235732 L9.95220211,22.7849132 L9.95220211,22.7849132 Z" id="Shape"></path> <path d="M13.8870568,8.69379653 L15.5394695,8.53538462 C15.6375579,9.0898263 15.84128,9.49717122 16.1468632,9.75741935 C16.4486737,10.0176675 16.8598905,10.1496774 17.3767411,10.1496774 C17.9275453,10.1496774 18.3387621,10.0327543 18.6141642,9.8026799 C18.8895663,9.57260546 19.0291537,9.30104218 19.0291537,8.99176179 C19.0291537,8.79186104 18.9687916,8.622134 18.85184,8.48258065 C18.7386611,8.3430273 18.5311663,8.22233251 18.2406737,8.11672457 C18.0407242,8.04883375 17.5880084,7.92436725 16.8825263,7.75086849 C15.9733221,7.52456576 15.3319747,7.24545906 14.9622568,6.9173201 C14.4454063,6.4533995 14.1888674,5.89141439 14.1888674,5.22382134 C14.1888674,4.79384615 14.3095916,4.39404467 14.5548126,4.02064516 C14.8000337,3.64724566 15.1471158,3.36436725 15.6036042,3.16823821 C16.0600926,2.97210918 16.6146695,2.87404467 17.2597895,2.87404467 C18.3161263,2.87404467 19.1121516,3.10789082 19.6440926,3.5680397 C20.1798063,4.0319603 20.4627537,4.65052109 20.4891621,5.42372208 L18.7877053,5.49915633 C18.7160253,5.06540943 18.5575747,4.75612903 18.3198989,4.56377171 C18.0822232,4.37141439 17.7238232,4.2808933 17.2446989,4.2808933 C16.7504842,4.2808933 16.3656758,4.38272953 16.0827284,4.58640199 C15.9016421,4.71841191 15.8148716,4.89191067 15.8148716,5.11066998 C15.8148716,5.31057072 15.8978695,5.48029777 16.0676379,5.61985112 C16.2826779,5.8008933 16.7995284,5.98947891 17.6295074,6.18183623 C18.4557137,6.37796526 19.06688,6.577866 19.4630063,6.78531017 C19.85536,6.99652605 20.1684884,7.27940447 20.3910737,7.64148883 C20.6136589,8.0035732 20.7268379,8.44863524 20.7268379,8.98044665 C20.7268379,9.46322581 20.5947958,9.91583127 20.3269389,10.3344913 C20.0590821,10.7531514 19.6818189,11.0662035 19.1913768,11.2736476 C18.7009347,11.4810918 18.0897684,11.582928 17.3578779,11.582928 C16.2939958,11.582928 15.4791074,11.3377667 14.90944,10.8436725 C14.3397726,10.3533499 13.9964632,9.63672457 13.8870568,8.69379653 Z" id="Shape"></path> <polygon id="Shape" points="24.0580716 11.4320596 24.0580716 4.43930521 21.5605895 4.43930521 21.5605895 3.01736973 28.2456926 3.01736973 28.2456926 4.43930521 25.7557558 4.43930521 25.7557558 11.4320596 24.0580716 11.4320596"></polygon> </g> </g> </g> </g> </g> </svg>