<?xml version="1.0" encoding="UTF-8"?>
<svg width="140px" height="42px" viewBox="0 0 140 42" version="1.1" xmlns="http://www.w3.org/2000/svg" xmlns:xlink="http://www.w3.org/1999/xlink">
    <!-- Generator: sketchtool 56 (101010) - https://sketch.com -->
    <title>961523F1-CAFD-4BB4-8E5F-706DFFF2DF90@1x</title>
    <desc>Created with sketchtool.</desc>
    <defs>
        <polygon id="path-1" points="0.03 0.4875 139.953 0.4875 139.953 41.97 0.03 41.97"></polygon>
    </defs>
    <g id="Page-1" stroke="none" stroke-width="1" fill="none" fill-rule="evenodd">
        <g id="Vilmate-Updated-Footer" transform="translate(-391.000000, -4913.000000)">
            <g id="Group-61" transform="translate(0.000000, 4860.000000)">
                <g id="Vilmate-logo" transform="translate(391.000000, 53.000000)">
                    <polyline id="Fill-1" fill="#FFFFFF" points="81.3615 12.0185 76.9605 22.2815 74.4815 22.2815 70.08 12.0185 72.5785 12.0185 75.769 19.6295 79.0555 12.0185 81.3615 12.0185"></polyline>
                    <path d="M82.509,22.281 L84.9115,22.281 L84.9115,12.0185 L82.509,12.0185 L82.509,22.281 Z M82.1825,8.886 C82.1825,8.079 82.836,7.4445 83.72,7.4445 C84.604,7.4445 85.2575,8.04 85.2575,8.8285 C85.2575,9.674 84.6235,10.3275 83.72,10.3275 C82.836,10.3275 82.1825,9.6935 82.1825,8.886 L82.1825,8.886 Z" id="Fill-2" fill="#FFFFFF"></path>
                    <polygon id="Fill-3" fill="#FFFFFF" points="87.433 22.2815 89.8355 22.2815 89.8355 8.021 87.433 8.021"></polygon>
                    <path d="M109.5115,16.4005 L109.5115,22.2815 L107.109,22.2815 L107.109,16.708 C107.109,14.882 106.2635,13.998 104.8025,13.998 C103.227,13.998 102.131,15.036 102.131,17.073 L102.131,22.2815 L99.729,22.2815 L99.729,16.708 C99.729,14.882 98.883,13.998 97.4225,13.998 C95.8275,13.998 94.7515,15.036 94.7515,17.073 L94.7515,22.2815 L92.349,22.2815 L92.349,12.0185 L94.636,12.0185 L94.636,13.3255 C95.4045,12.403 96.5965,11.903 97.9995,11.903 C99.4985,11.903 100.7475,12.4605 101.459,13.614 C102.285,12.557 103.669,11.903 105.3025,11.903 C107.7815,11.903 109.5115,13.3065 109.5115,16.4005" id="Fill-4" fill="#FFFFFF"></path>
                    <path d="M118.218,19.072 L118.218,17.88 L115.739,17.88 C114.1055,17.88 113.6635,18.4955 113.6635,19.245 C113.6635,20.1095 114.3935,20.667 115.624,20.667 C116.796,20.667 117.815,20.129 118.218,19.072 Z M120.6205,16.266 L120.6205,22.2815 L118.353,22.2815 L118.353,21.0325 C117.776,21.9165 116.6615,22.416 115.124,22.416 C112.779,22.416 111.299,21.1285 111.299,19.341 C111.299,17.6305 112.4525,16.285 115.566,16.285 L118.218,16.285 L118.218,16.1315 C118.218,14.7285 117.3725,13.902 115.662,13.902 C114.509,13.902 113.317,14.2865 112.5485,14.9205 L111.607,13.172 C112.7025,12.326 114.2975,11.903 115.9505,11.903 C118.91,11.903 120.6205,13.3065 120.6205,16.266 L120.6205,16.266 Z" id="Fill-5" fill="#FFFFFF"></path>
                    <path d="M129.196,21.7245 C128.62,22.185 127.7545,22.416 126.89,22.416 C124.6415,22.416 123.354,21.2245 123.354,18.9565 L123.354,14.0175 L121.6625,14.0175 L121.6625,12.0955 L123.354,12.0955 L123.354,9.751 L125.756,9.751 L125.756,12.0955 L128.504,12.0955 L128.504,14.0175 L125.756,14.0175 L125.756,18.899 C125.756,19.8985 126.2555,20.4365 127.178,20.4365 C127.678,20.4365 128.1585,20.302 128.524,20.0135 L129.196,21.7245" id="Fill-6" fill="#FFFFFF"></path>
                    <g id="Group-10">
                        <mask id="mask-2" fill="white">
                            <use xlink:href="#path-1"></use>
                        </mask>
                        <g id="Clip-8"></g>
                        <path d="M131.8425,16.3235 L137.6665,16.3235 C137.474,14.844 136.34,13.825 134.764,13.825 C133.2075,13.825 132.0735,14.8245 131.8425,16.3235 Z M139.915,17.919 L131.862,17.919 C132.15,19.418 133.3995,20.379 135.187,20.379 C136.34,20.379 137.2435,20.0135 137.9735,19.264 L139.2615,20.744 C138.3385,21.8395 136.8975,22.416 135.129,22.416 C131.6895,22.416 129.46,20.2055 129.46,17.15 C129.46,14.094 131.7085,11.903 134.764,11.903 C137.762,11.903 139.953,13.998 139.953,17.2075 C139.953,17.4 139.934,17.688 139.915,17.919 L139.915,17.919 Z" id="Fill-7" fill="#FFFFFF" mask="url(#mask-2)"></path>
                        <path d="M31.165,38.3695 L31.165,21.9085 L57.305,4.1185 L57.305,20.5795 L31.165,38.3695 Z M2.5125,4.1185 L28.6525,21.9085 L28.6525,38.3695 L2.5125,20.5795 L2.5125,4.1185 Z M54.4825,3 L29.909,19.724 L5.335,3 L54.4825,3 Z M59.814,1.721 C59.8125,1.624 59.799,1.5275 59.7745,1.4315 C59.771,1.419 59.7695,1.406 59.766,1.3935 C59.764,1.387 59.7635,1.3805 59.762,1.374 C59.734,1.2845 59.694,1.2015 59.649,1.1225 C59.639,1.1055 59.6295,1.0895 59.619,1.073 C59.566,0.9895 59.5055,0.9125 59.4355,0.844 C59.4255,0.8345 59.4145,0.8265 59.404,0.817 C59.3285,0.748 59.246,0.6875 59.1565,0.639 C59.1535,0.6375 59.1515,0.635 59.1485,0.633 C59.148,0.6325 59.1465,0.6325 59.146,0.632 C59.0555,0.5845 58.9575,0.551 58.857,0.527 C58.8395,0.5225 58.823,0.5175 58.8055,0.514 C58.726,0.498 58.6445,0.4875 58.561,0.4875 L1.256,0.4875 C1.1725,0.4875 1.0915,0.498 1.012,0.514 C0.994,0.5175 0.9775,0.5225 0.9605,0.527 C0.8595,0.5515 0.762,0.5845 0.6715,0.632 C0.6705,0.6325 0.67,0.6325 0.669,0.633 C0.666,0.635 0.664,0.6375 0.661,0.639 C0.571,0.6875 0.489,0.748 0.4135,0.817 C0.403,0.8265 0.392,0.8345 0.382,0.844 C0.312,0.9125 0.251,0.9895 0.198,1.073 C0.188,1.0895 0.178,1.1055 0.1685,1.1225 C0.1235,1.2015 0.0835,1.2845 0.0555,1.374 C0.0535,1.3805 0.053,1.387 0.0515,1.3935 C0.0475,1.406 0.046,1.419 0.043,1.4315 C0.018,1.5275 0.005,1.624 0.0035,1.721 C0.003,1.7285 3.55271368e-15,1.7355 3.55271368e-15,1.744 L3.55271368e-15,21.244 C3.55271368e-15,21.6595 0.2055,22.0485 0.5495,22.2825 L29.202,41.7825 C29.22,41.7945 29.2415,41.799 29.26,41.81 C29.2815,41.8235 29.2985,41.8425 29.321,41.854 C29.369,41.8795 29.4205,41.8925 29.4705,41.911 C29.5045,41.924 29.537,41.94 29.5725,41.95 C29.6825,41.9805 29.7955,42 29.9085,42 L29.909,42 C30.022,42 30.1345,41.9805 30.245,41.95 C30.28,41.94 30.3125,41.924 30.347,41.911 C30.397,41.8925 30.4485,41.8795 30.496,41.854 C30.5185,41.8425 30.5355,41.8235 30.557,41.81 C30.576,41.799 30.5975,41.7945 30.6155,41.7825 L59.268,22.2825 C59.6115,22.0485 59.817,21.6595 59.817,21.244 L59.817,1.744 C59.817,1.7355 59.8145,1.7285 59.814,1.721 L59.814,1.721 Z" id="Fill-9" fill="#FFFFFF" mask="url(#mask-2)"></path>
                    </g>
                </g>
            </g>
        </g>
    </g>
</svg>