<svg xmlns="http://www.w3.org/2000/svg" xmlns:xlink="http://www.w3.org/1999/xlink" width="84px" height="128px" viewBox="0 0 84 128"> <!-- Generator: Sketch 43.1 (39012) - http://www.bohemiancoding.com/sketch --> <title>Group</title> <desc>Created with Sketch.</desc> <defs></defs> <g id="Page-1" stroke="none" stroke-width="1" fill="none" fill-rule="evenodd"> <g id="Vilmate-New-Services" transform="translate(-1299.000000, -842.000000)"> <g id="services" transform="translate(390.000000, 790.000000)"> <g id="mobile" transform="translate(760.000000, 0.000000)"> <g id="Group" transform="translate(149.000000, 52.000000)"> <path d="M72.7722667,128 L11.1957333,128 C5.0128896,128 0,123.016348 0,116.869565 L0,11.1304348 C0,4.98365217 5.0128896,0 11.1957333,0 L72.7722667,0 C78.9551104,0 83.968,4.98365217 83.968,11.1304348 L83.968,116.869565 C83.968,123.016348 78.9551104,128 72.7722667,128 L72.7722667,128 Z" id="Shape" fill="#444444"></path> <ellipse id="Oval" fill="#595959" cx="42.496" cy="116.224" rx="5.632" ry="5.632"></ellipse> <path d="M11.008,105.472 C9.453568,105.472 8.192,104.218078 8.192,102.673067 L8.192,19.1829333 C8.192,17.6379221 9.453568,16.384 11.008,16.384 L72.96,16.384 C74.514432,16.384 75.776,17.6379221 75.776,19.1829333 L75.776,102.673067 C75.776,102.673067 74.514432,105.472 72.96,105.472 L11.008,105.472 Z" id="Shape" fill="#43A6DD"></path> </g> </g> </g> </g> </g> </svg>