<svg xmlns="http://www.w3.org/2000/svg" xmlns:xlink="http://www.w3.org/1999/xlink" width="141px" height="150px" viewBox="0 0 141 150"> <!-- Generator: Sketch 43.1 (39012) - http://www.bohemiancoding.com/sketch --> <title>Group</title> <desc>Created with Sketch.</desc> <defs></defs> <g id="Page-1" stroke="none" stroke-width="1" fill="none" fill-rule="evenodd"> <g id="Vilmate-New-Services" transform="translate(-1270.000000, -1294.000000)"> <g id="services" transform="translate(390.000000, 790.000000)"> <g id="consulting" transform="translate(760.000000, 474.000000)"> <g id="Group" transform="translate(120.000000, 30.000000)"> <path d="M139.253125,37.1 C138.390625,36.515625 137.29375,36.396875 136.340625,36.784375 L73.840625,61.784375 C72.653125,62.2625 71.875,63.409375 71.875,64.6875 L71.875,145.9375 C71.875,146.975 72.390625,147.94375 73.246875,148.525 C73.771875,148.878125 74.384375,149.0625 75,149.0625 C75.39375,149.0625 75.7875,148.990625 76.159375,148.840625 L138.659375,123.840625 C139.846875,123.3625 140.625,122.215625 140.625,120.9375 L140.625,39.6875 C140.625,38.65 140.109375,37.68125 139.253125,37.1 L139.253125,37.1 Z" id="Shape" fill="#458BC4"></path> <path d="M65.625,61.321875 L4.284375,36.784375 C3.328125,36.40625 2.234375,36.51875 1.371875,37.1 C0.515625,37.68125 0,38.65 0,39.6875 L0,120.9375 C0,122.215625 0.778125,123.3625 1.965625,123.840625 L64.465625,148.840625 C64.8375,148.990625 65.23125,149.0625 65.625,149.0625 L65.625,61.321875 L65.625,61.321875 Z" id="Shape" fill="#43A6DD"></path> <path d="M133.034375,25.534375 L70.534375,0.534375 C69.790625,0.234375 68.959375,0.234375 68.215625,0.534375 L5.715625,25.534375 C4.528125,26.0125 3.75,27.159375 3.75,28.4375 C3.75,29.715625 4.528125,30.8625 5.715625,31.340625 L68.215625,56.340625 C68.5875,56.490625 68.98125,56.5625 69.375,56.5625 C69.76875,56.5625 70.1625,56.490625 70.534375,56.340625 L133.034375,31.340625 C134.221875,30.8625 135,29.715625 135,28.4375 C135,27.159375 134.221875,26.0125 133.034375,25.534375 L133.034375,25.534375 Z" id="Shape" fill="#BADEFC"></path> </g> </g> </g> </g> </g> </svg>