<svg xmlns="http://www.w3.org/2000/svg" xmlns:xlink="http://www.w3.org/1999/xlink" width="150px" height="128px" viewBox="0 0 150 128"> <!-- Generator: Sketch 43.1 (39012) - http://www.bohemiancoding.com/sketch --> <title>Group</title> <desc>Created with Sketch.</desc> <defs></defs> <g id="Page-1" stroke="none" stroke-width="1" fill="none" fill-rule="evenodd"> <g id="Vilmate-New-Services" transform="translate(-886.000000, -820.000000)"> <g id="services" transform="translate(390.000000, 790.000000)"> <g id="web" transform="translate(378.000000, 0.000000)"> <g id="Group" transform="translate(118.000000, 30.000000)"> <path d="M143.478261,128 L6.52173913,128 C2.91847826,128 0,125.136 0,121.6 L0,6.4 C0,2.864 2.91847826,1.42108547e-14 6.52173913,1.42108547e-14 L143.478261,1.42108547e-14 C147.081522,1.42108547e-14 150,2.864 150,6.4 L150,121.6 C150,125.136 147.081522,128 143.478261,128 L143.478261,128 Z" id="Shape" fill="#444444"></path> <rect id="Rectangle-path" fill="#FFFFFF" x="6.29370629" y="21.504" width="137.412587" height="98.304"></rect> <ellipse id="Oval" fill="#E86C60" cx="11.5384615" cy="11.264" rx="5.24475524" ry="5.12"></ellipse> <ellipse id="Oval" fill="#EFD358" cx="28.3216783" cy="11.264" rx="5.24475524" ry="5.12"></ellipse> <ellipse id="Oval" fill="#72C472" cx="45.1048951" cy="11.264" rx="5.24475524" ry="5.12"></ellipse> <path d="M130.973193,115.712 L19.0268065,115.712 C17.209324,115.712 15.7342657,114.284772 15.7342657,112.526222 L15.7342657,90.2257778 C15.7342657,88.4672284 17.209324,87.04 19.0268065,87.04 L130.973193,87.04 C132.790676,87.04 134.265734,88.4672284 134.265734,90.2257778 L134.265734,112.526222 C134.265734,114.284772 132.790676,115.712 130.973193,115.712 L130.973193,115.712 Z" id="Shape" fill-opacity="0.5" fill="#2776C5"></path> <path d="M130.973193,54.272 L19.0268065,54.272 C17.209324,54.272 15.7342657,52.8447716 15.7342657,51.0862222 L15.7342657,28.7857778 C15.7342657,27.0272284 17.209324,25.6 19.0268065,25.6 L130.973193,25.6 C132.790676,25.6 134.265734,27.0272284 134.265734,28.7857778 L134.265734,51.0862222 C134.265734,52.8447716 132.790676,54.272 130.973193,54.272 L130.973193,54.272 Z" id="Shape" fill="#72C472"></path> <path d="M51.4277389,84.992 L16.7540793,84.992 C16.1911422,84.992 15.7342657,83.5647716 15.7342657,81.8062222 L15.7342657,59.5057778 C15.7342657,57.7472284 16.1911422,56.32 16.7540793,56.32 L51.4277389,56.32 C51.990676,56.32 52.4475524,57.7472284 52.4475524,59.5057778 L52.4475524,81.8062222 C52.4475524,83.5647716 51.990676,84.992 51.4277389,84.992 L51.4277389,84.992 Z" id="Shape" fill="#A3A3A3"></path> <path d="M92.3368298,84.992 L57.6631702,84.992 C57.1002331,84.992 56.6433566,83.5647716 56.6433566,81.8062222 L56.6433566,59.5057778 C56.6433566,57.7472284 57.1002331,56.32 57.6631702,56.32 L92.3368298,56.32 C92.8997669,56.32 93.3566434,57.7472284 93.3566434,59.5057778 L93.3566434,81.8062222 C93.3566434,83.5647716 92.8997669,84.992 92.3368298,84.992 L92.3368298,84.992 Z" id="Shape" fill="#A3A3A3"></path> <path d="M133.245921,84.992 L98.5722611,84.992 C98.009324,84.992 97.5524476,83.5647716 97.5524476,81.8062222 L97.5524476,59.5057778 C97.5524476,57.7472284 98.009324,56.32 98.5722611,56.32 L133.245921,56.32 C133.808858,56.32 134.265734,57.7472284 134.265734,59.5057778 L134.265734,81.8062222 C134.265734,83.5647716 133.808858,84.992 133.245921,84.992 L133.245921,84.992 Z" id="Shape" fill="#A3A3A3"></path> </g> </g> </g> </g> </g> </svg>